<svg id="visual" viewBox="0 0 1600 900" width="1600" height="900" xmlns="http://www.w3.org/2000/svg" xmlns:xlink="http://www.w3.org/1999/xlink" version="1.1"><rect x="0" y="0" width="1600" height="900" fill="#FFFFFF"></rect><defs><linearGradient id="grad1_0" x1="43.8%" y1="0%" x2="100%" y2="100%"><stop offset="14.444444444444446%" stop-color="#ffffff" stop-opacity="1"></stop><stop offset="85.55555555555554%" stop-color="#ffffff" stop-opacity="1"></stop></linearGradient></defs><defs><linearGradient id="grad2_0" x1="0%" y1="0%" x2="56.3%" y2="100%"><stop offset="14.444444444444446%" stop-color="#ffffff" stop-opacity="1"></stop><stop offset="85.55555555555554%" stop-color="#ffffff" stop-opacity="1"></stop></linearGradient></defs><g transform="translate(1600, 0)"><path d="M0 630C-41.4 621 -82.7 611.9 -117.1 588.5C-151.4 565 -178.7 527.2 -210.1 507.2C-241.5 487.3 -276.8 485.2 -322.8 483.1C-368.7 481 -425.2 478.7 -445.5 445.5C-465.7 412.2 -449.7 347.9 -454.8 303.9C-459.9 259.9 -486.2 236.2 -498 206.3C-509.8 176.3 -507.1 140.2 -526.7 104.8C-546.3 69.3 -588.1 34.7 -630 0L0 0Z" fill="#e73f09"></path></g><g transform="translate(0, 900)"><path d="M0 -630C36.1 -605.7 72.2 -581.4 115.3 -579.6C158.3 -577.9 208.3 -598.6 241.1 -582C273.9 -565.5 289.4 -511.5 326.1 -488.1C362.8 -464.6 420.6 -471.6 443.4 -443.4C466.1 -415.1 453.7 -351.5 460.6 -307.8C467.6 -264 493.9 -240.1 506.3 -209.7C518.7 -179.3 517.2 -142.5 535.5 -106.5C553.8 -70.5 591.9 -35.2 630 0L0 0Z" fill="#e73f09"></path></g></svg>